<?xml version="1.0" encoding="UTF-8"?>
<svg id="Calque_1" data-name="Calque 1" xmlns="http://www.w3.org/2000/svg" viewBox="0 0 2024 952">
  <defs>
    <style>
      .cls-1 {
        fill: #1a56db;
      }
    </style>
  </defs>
  <g>
    <path class="cls-1" d="M1300.11,524.88h-34.1v102.89h14.45v-44.13h19.65c8.06,0,15.04-2.88,20.72-8.57,5.69-5.69,8.57-12.66,8.57-20.72s-2.88-15.04-8.55-20.78c-5.69-5.76-12.67-8.67-20.74-8.67ZM1300.11,569.01h-19.65v-29.52h19.65c4.1,0,7.53,1.43,10.47,4.37,2.94,2.94,4.37,6.37,4.37,10.47s-1.4,7.5-4.29,10.39c-2.88,2.89-6.34,4.29-10.55,4.29Z"/>
    <path class="cls-1" d="M1387.11,563.03c-1.23-.91-2.52-1.75-3.89-2.52-5.43-3.06-11.34-4.62-17.59-4.62-9.83,0-18.36,3.55-25.37,10.56-7.01,7.01-10.56,15.54-10.56,25.37s3.55,18.36,10.56,25.37c7.01,7.01,15.54,10.56,25.37,10.56,6.25,0,12.17-1.55,17.59-4.62,1.36-.77,2.66-1.61,3.89-2.51v7.13h14.45v-71.86h-14.45v7.13ZM1365.63,570.35c6,0,10.97,2.05,15.2,6.28,4.23,4.22,6.28,9.2,6.28,15.2s-2.05,10.97-6.28,15.2c-4.23,4.23-9.2,6.28-15.2,6.28s-10.97-2.05-15.2-6.28c-4.23-4.23-6.28-9.2-6.28-15.2s2.05-10.97,6.28-15.2c4.23-4.23,9.2-6.28,15.2-6.28Z"/>
    <path class="cls-1" d="M1417.97,562.07c-4.2,4.2-6.33,9.36-6.33,15.33s2.12,11.13,6.3,15.38c4.2,4.28,9.37,6.44,15.36,6.44,2.01,0,3.6.65,5,2.05,1.4,1.4,2.05,2.98,2.05,5s-.65,3.6-2.05,5c-1.4,1.4-2.99,2.05-5,2.05h-21.66v14.45h21.66c5.96,0,11.1-2.09,15.3-6.22,4.22-4.15,6.36-9.29,6.36-15.28s-2.13-11.13-6.33-15.33c-4.2-4.2-9.36-6.33-15.33-6.33-2.01,0-3.63-.68-5.08-2.13-1.45-1.45-2.13-3.06-2.13-5.08s.66-3.56,2.09-4.96c1.46-1.42,3.08-2.09,5.12-2.09h21.66v-14.62h-21.66c-5.97,0-11.13,2.13-15.33,6.33Z"/>
    <path class="cls-1" d="M1514.33,539.49c10.24,0,18.77,3.55,26.07,10.84l3.47,3.47,10.29-10.29-3.55-3.47c-10.31-10.06-22.51-15.17-36.28-15.17s-26.35,5.09-36.33,15.14c-9.97,10.03-15.03,22.28-15.03,36.39s5.06,26.34,15.04,36.32c9.98,9.98,22.2,15.04,36.32,15.04s26.34-5.06,36.32-15.04l3.47-3.47-10.25-10.25-3.47,3.47c-7.3,7.3-15.82,10.84-26.07,10.84s-18.77-3.55-26.07-10.84h0c-7.3-7.29-10.84-15.82-10.84-26.07s3.54-18.9,10.83-26.14c7.3-7.25,15.83-10.77,26.08-10.77Z"/>
    <path class="cls-1" d="M1598.75,555.9c-6.25,0-12.17,1.55-17.59,4.62-1.36.77-2.66,1.61-3.89,2.51v-38.16h-14.45v102.89h14.45v-35.93c0-5.88,2.07-10.79,6.34-15.02,4.28-4.24,9.23-6.3,15.13-6.3s10.81,2.05,15.03,6.28c4.23,4.23,6.28,9.14,6.28,15.03v35.93h14.62v-35.93c0-9.82-3.55-18.36-10.56-25.37-7.01-7.01-15.55-10.56-25.37-10.56Z"/>
    <path class="cls-1" d="M1676.76,555.74c-9.93,0-18.51,3.52-25.52,10.46-7.02,6.96-10.58,15.52-10.58,25.47s3.55,18.53,10.56,25.53c7.01,7.01,15.6,10.56,25.53,10.56s18.36-3.55,25.37-10.56l3.47-3.47-10.25-10.25-3.47,3.47c-4.28,4.28-9.23,6.36-15.12,6.36s-10.4-1.83-14.53-5.61c-2.74-2.5-4.67-5.36-5.82-8.65h56.28v-7.39c0-9.93-3.53-18.49-10.48-25.45-6.96-6.95-15.52-10.48-25.45-10.48ZM1662.04,576.06c4.25-3.84,9.06-5.7,14.72-5.7s10.39,1.83,14.53,5.6c2.74,2.5,4.64,5.36,5.74,8.65h-40.84c1.13-3.21,3.06-6.04,5.84-8.55Z"/>
    <path class="cls-1" d="M1755.62,555.74c-6.26,0-12.16,1.56-17.53,4.63-1.32.76-2.59,1.58-3.78,2.47v-7.1h-14.62v72.02h14.62v-36.1c0-6,2.03-10.95,6.2-15.12,4.17-4.17,9.11-6.2,15.12-6.2h4.9v-14.62h-4.9Z"/>
  </g>
  <polygon class="cls-1" points="1263.45 445.27 1263.64 445.09 1263.64 509.94 1289.47 509.94 1289.47 445.09 1335.33 490.94 1353.59 472.67 1307.74 426.82 1372.59 426.82 1372.59 400.98 1307.74 400.98 1353.59 355.13 1335.33 336.86 1289.47 382.72 1289.47 317.87 1263.64 317.87 1263.64 382.72 1217.78 336.86 1199.51 355.13 1245.37 400.98 1180.52 400.98 1180.52 426.82 1245.37 426.82 1245.1 427.08 1263.45 427.08 1263.45 445.27"/>
  <g>
    <path d="M385.16,410.27c-8.86,33.16-20.58,79.77-36.02,140.95-8.58,35.45-14.58,60.9-19.16,80.34h-25.73c.57-3.43,1.72-6.29,2.86-10.86.86-3.43,1.72-6.29,2.57-8.86l-1.72-.29c-6.86,12.87-16.29,22.01-26.3,22.01-16.58,0-27.45-13.72-7.15-94.63,19.44-77.19,32.31-90.63,50.03-90.63,10.58,0,17.44,5.72,21.16,13.44l1.14-.28c2-9.15,4-16.01,6.01-24.3,2.57-9.72,4.29-17.44,6.58-26.87h25.73ZM343.99,473.17c-3.14-1.72-7.15-2.86-12.01-2.86-10.58,0-18.01,8.86-33.73,71.76-15.44,62.61-12.29,68.9-3.43,68.9,8.01,0,16.29-6.01,22.01-28.31l27.16-109.5Z"/>
    <path d="M388.31,634.13c-29.16,0-38.31-24.02-19.73-98.35,17.73-72.05,31.45-88.06,57.47-88.06,28.3,0,40.03,16.58,21.44,92.06-18.01,71.48-32.59,94.35-59.18,94.35ZM423.76,470.31c-9.43,0-16.01,8.86-30.88,68.61-15.72,60.9-12.58,72.34-1.72,72.34,9.15,0,15.72-11.44,30.88-70.62,15.15-61.18,11.44-70.33,1.72-70.33Z"/>
    <path d="M550.98,470.31c8.86-16.01,18.87-22.02,29.73-22.02,15.15,0,22.3,12.01,18.3,28.31-9.15,34.88-16.58,63.76-23.73,92.92-5.43,21.73-11.15,44.31-14.87,62.04h-24.87c8.58-32.59,21.44-83.2,37.17-146.38,2.29-9.43-1.14-14.29-8.01-14.29-8.01,0-14.87,6.86-18.87,24.02-20.01,79.48-27.73,109.79-33.73,136.66h-25.16c9.15-33.74,18.87-72.05,37.45-146.38,2-8.86-.28-14.29-7.43-14.29-8.01,0-15.44,6.86-19.73,24.02-16.58,66.61-27.73,111.21-33.74,136.66h-24.59c6.86-25.73,13.15-51.75,22.87-90.06,9.43-38.88,16.01-65.19,22.3-91.2h25.16c-2,6.86-3.43,12.01-5.14,18.3h1.14c7.72-14.29,16.3-20.3,27.45-20.3,10.01,0,17.44,7.15,16.87,22.02h1.43Z"/>
    <path d="M578.42,631.56c6.86-26.3,14.58-57.75,23.73-94.06,8.29-33.73,15.44-62.32,21.44-87.2h25.45c-6.86,25.73-14.01,54.32-22.3,87.77-10.86,43.17-17.15,68.33-22.87,93.49h-25.45ZM640.46,436.58c-12.29,0-14.58-6.58-12.87-13.44,1.72-6.58,6.29-11.15,17.44-11.15,12.29,0,14.58,5.43,12.87,13.15-1.43,5.72-6,11.44-17.44,11.44Z"/>
    <path d="M708.5,580.38c-9.43,32.88-19.16,53.75-46.32,53.75-29.16,0-38.88-20.01-20.01-95.21,16.87-68.04,31.45-91.2,60.04-91.2,25.16,0,34.88,17.16,24.59,58.04-1.14,5.72-2.86,12.29-5.15,19.44-3.14-.29-7.15-.29-11.43-.29s-8.86,0-12.01.29c2.29-7.72,3.72-14.01,5.14-19.73,6.86-28.02,5.15-34.59-4.86-34.59s-16.58,7.15-32.02,70.33c-15.44,62.32-11.72,69.47-1.71,69.47,8.58,0,14.29-8.86,19.73-30.02,1.43-6,2.86-12.29,4.57-19.16,3.14,0,7.43.29,11.72.29s8.86-.29,12.01-.29c-1.14,6.58-2.86,12.29-4.29,18.87Z"/>
    <path d="M710.5,631.56c6.86-26.3,14.58-57.75,23.73-94.06,8.29-33.73,15.44-62.32,21.44-87.2h25.45c-6.86,25.73-14.01,54.32-22.3,87.77-10.86,43.17-17.15,68.33-22.87,93.49h-25.45ZM772.54,436.58c-12.29,0-14.58-6.58-12.87-13.44,1.72-6.58,6.29-11.15,17.44-11.15,12.29,0,14.58,5.43,12.87,13.15-1.43,5.72-6,11.44-17.44,11.44Z"/>
    <path d="M754.53,631.56c8.01-29.16,18.01-71.19,28.02-111.5,10.01-39.17,19.73-78.05,27.16-109.79h26.02c-8.01,29.16-16.58,64.04-28.31,110.93-11.72,46.6-19.44,77.76-27.16,110.36h-25.73Z"/>
    <path d="M799.13,631.56c6.86-26.3,14.58-57.75,23.73-94.06,8.29-33.73,15.44-62.32,21.44-87.2h25.45c-6.86,25.73-14.01,54.32-22.3,87.77-10.86,43.17-17.15,68.33-22.87,93.49h-25.45ZM861.17,436.58c-12.29,0-14.58-6.58-12.87-13.44,1.72-6.58,6.29-11.15,17.44-11.15,12.29,0,14.58,5.43,12.87,13.15-1.43,5.72-6,11.44-17.44,11.44Z"/>
    <path d="M963.23,450.3c-2.86,10.01-10.58,39.45-22.01,86.34-10.58,42.03-18.01,72.33-23.16,94.92h-25.73c.57-3.43,1.72-6,2.86-10.58.86-3.43,1.43-6.29,2.29-8.86l-1.43-.28c-6.86,12.87-16.29,22.01-26.59,22.01-16.87,0-26.87-13.72-6.86-94.63,19.16-76.91,32.31-90.92,50.03-90.92,10.87,0,17.73,6.01,21.16,13.44l1.14-.28.57-1.72c.86-3.43,1.43-6.29,2.29-9.43h25.45ZM932.07,473.46c-3.14-1.72-7.15-2.86-12.01-2.86-10.58,0-18.01,8.86-33.73,71.76-15.73,62.33-12.29,68.9-3.43,68.9,8.01,0,16.29-6.29,21.73-28.31l27.45-109.5Z"/>
    <path d="M1008.4,450.58c6.86,0,14.01,0,20.87-.28-2,7.43-4.57,16.01-6.29,23.44-5.43-.28-12.86-.28-20.58-.57-9.43,36.02-20.3,77.76-32.02,124.37-2,8.86,1.14,12.01,7.15,12.01,4,0,8-1.14,11.43-3.43-1.14,7.72-2,17.44-2.57,23.73-6.29,2.29-12.01,3.43-18.3,3.43-21.73,0-27.45-14.01-22.3-34.88,8.58-34.31,19.16-74.91,32.02-125.51h-8.86c1.72-7.43,3.72-16.01,5.43-22.58h9.15l7.15-28.59c4,0,8.29.28,12.87.28,4,0,8.29,0,12.58-.28l-7.72,28.87Z"/>
    <path d="M998.11,631.56c6.86-26.3,14.58-57.75,23.73-94.06,8.29-33.73,15.44-62.32,21.44-87.2h25.45c-6.86,25.73-14.01,54.32-22.3,87.77-10.86,43.17-17.15,68.33-22.87,93.49h-25.45ZM1060.15,436.58c-12.29,0-14.58-6.58-12.87-13.44,1.72-6.58,6.29-11.15,17.44-11.15,12.29,0,14.58,5.43,12.87,13.15-1.43,5.72-6,11.44-17.44,11.44Z"/>
    <path d="M1082.16,634.13c-29.16,0-38.31-24.02-19.73-98.35,17.73-72.05,31.45-88.06,57.47-88.06,28.3,0,40.03,16.58,21.44,92.06-18.01,71.48-32.59,94.35-59.18,94.35ZM1117.61,470.31c-9.43,0-16.01,8.86-30.88,68.61-15.72,60.9-12.58,72.34-1.72,72.34,9.15,0,15.72-11.44,30.88-70.62,15.15-61.18,11.44-70.33,1.72-70.33Z"/>
    <path d="M1199.66,469.17c7.72-14.58,17.15-20.87,27.73-20.87,17.15,0,24.02,14.87,18.3,36.88-9.72,38.88-14.29,56.04-19.73,78.62-6.58,25.73-11.72,46.6-16.3,67.76h-26.02c9.43-36.6,21.16-84.05,36.6-145.24,2.86-10.01.86-15.44-7.72-15.44s-16.3,7.15-20.59,25.16c-22.01,87.77-27.45,110.93-33.45,135.52h-25.73c6.86-25.73,13.15-50.6,22.87-89.77,9.72-38.6,16.87-68.62,22.59-91.49h25.45c-2,7.43-3.43,12.29-5.43,18.58l1.43.29Z"/>
  </g>
</svg>